<?xml version="1.0" encoding="utf-8" standalone="no"?>
<!DOCTYPE svg PUBLIC "-//W3C//DTD SVG 1.1//EN"
  "http://www.w3.org/Graphics/SVG/1.1/DTD/svg11.dtd">
<svg xmlns:xlink="http://www.w3.org/1999/xlink" width="864pt" height="432pt" viewBox="0 0 864 432" xmlns="http://www.w3.org/2000/svg" version="1.1">
 <metadata>
  <rdf:RDF xmlns:dc="http://purl.org/dc/elements/1.1/" xmlns:cc="http://creativecommons.org/ns#" xmlns:rdf="http://www.w3.org/1999/02/22-rdf-syntax-ns#">
   <cc:Work>
    <dc:type rdf:resource="http://purl.org/dc/dcmitype/StillImage"/>
    <dc:date>2025-06-30T13:33:15.718866</dc:date>
    <dc:format>image/svg+xml</dc:format>
    <dc:creator>
     <cc:Agent>
      <dc:title>Matplotlib v3.9.2, https://matplotlib.org/</dc:title>
     </cc:Agent>
    </dc:creator>
   </cc:Work>
  </rdf:RDF>
 </metadata>
 <defs>
  <style type="text/css">*{stroke-linejoin: round; stroke-linecap: butt}</style>
 </defs>
 <g id="figure_1">
  <g id="patch_1">
   <path d="M 0 432 
L 864 432 
L 864 0 
L 0 0 
z
" style="fill: #ffffff"/>
  </g>
  <g id="axes_1">
   <g id="patch_2">
    <path d="M 401.5008 371.7792 
L 462.4992 371.7792 
Q 466.8192 371.7792 466.8192 367.4592 
L 466.8192 323.7408 
Q 466.8192 319.4208 462.4992 319.4208 
L 401.5008 319.4208 
Q 397.1808 319.4208 397.1808 323.7408 
L 397.1808 367.4592 
Q 397.1808 371.7792 401.5008 371.7792 
z
" clip-path="url(#p2d6ff59271)" style="fill: #add8e6; stroke: #000000; stroke-linejoin: miter"/>
   </g>
   <g id="patch_3">
    <path d="M 371.52 338.688 
L 397.44 338.688 
L 397.44 326.592 
L 371.52 326.592 
z
" clip-path="url(#p2d6ff59271)" style="fill: #d3d3d3; stroke: #000000; stroke-linejoin: miter"/>
   </g>
   <g id="patch_4">
    <path d="M 371.52 364.608 
L 397.44 364.608 
L 397.44 352.512 
L 371.52 352.512 
z
" clip-path="url(#p2d6ff59271)" style="fill: #d3d3d3; stroke: #000000; stroke-linejoin: miter"/>
   </g>
   <g id="patch_5">
    <path d="M 466.56 351.648 
L 492.48 351.648 
L 492.48 339.552 
L 466.56 339.552 
z
" clip-path="url(#p2d6ff59271)" style="fill: #ffffff; stroke: #000000; stroke-linejoin: miter"/>
   </g>
   <g id="patch_6">
    <path d="M 263.2608 371.7792 
L 324.2592 371.7792 
Q 328.5792 371.7792 328.5792 367.4592 
L 328.5792 323.7408 
Q 328.5792 319.4208 324.2592 319.4208 
L 263.2608 319.4208 
Q 258.9408 319.4208 258.9408 323.7408 
L 258.9408 367.4592 
Q 258.9408 371.7792 263.2608 371.7792 
z
" clip-path="url(#p2d6ff59271)" style="fill: #add8e6; stroke: #000000; stroke-linejoin: miter"/>
   </g>
   <g id="patch_7">
    <path d="M 328.32 351.648 
L 354.24 351.648 
L 354.24 339.552 
L 328.32 339.552 
z
" clip-path="url(#p2d6ff59271)" style="fill: #ffffff; stroke: #000000; stroke-linejoin: miter"/>
   </g>
   <g id="patch_8">
    <path d="M 401.5008 285.3792 
L 462.4992 285.3792 
Q 466.8192 285.3792 466.8192 281.0592 
L 466.8192 237.3408 
Q 466.8192 233.0208 462.4992 233.0208 
L 401.5008 233.0208 
Q 397.1808 233.0208 397.1808 237.3408 
L 397.1808 281.0592 
Q 397.1808 285.3792 401.5008 285.3792 
z
" clip-path="url(#p2d6ff59271)" style="fill: #add8e6; stroke: #000000; stroke-linejoin: miter"/>
   </g>
   <g id="patch_9">
    <path d="M 371.52 252.288 
L 397.44 252.288 
L 397.44 240.192 
L 371.52 240.192 
z
" clip-path="url(#p2d6ff59271)" style="fill: #d3d3d3; stroke: #000000; stroke-linejoin: miter"/>
   </g>
   <g id="patch_10">
    <path d="M 371.52 278.208 
L 397.44 278.208 
L 397.44 266.112 
L 371.52 266.112 
z
" clip-path="url(#p2d6ff59271)" style="fill: #d3d3d3; stroke: #000000; stroke-linejoin: miter"/>
   </g>
   <g id="patch_11">
    <path d="M 466.56 265.248 
L 492.48 265.248 
L 492.48 253.152 
L 466.56 253.152 
z
" clip-path="url(#p2d6ff59271)" style="fill: #ffffff; stroke: #000000; stroke-linejoin: miter"/>
   </g>
   <g id="patch_12">
    <path d="M 539.7408 285.3792 
L 600.7392 285.3792 
Q 605.0592 285.3792 605.0592 281.0592 
L 605.0592 237.3408 
Q 605.0592 233.0208 600.7392 233.0208 
L 539.7408 233.0208 
Q 535.4208 233.0208 535.4208 237.3408 
L 535.4208 281.0592 
Q 535.4208 285.3792 539.7408 285.3792 
z
" clip-path="url(#p2d6ff59271)" style="fill: #add8e6; stroke: #000000; stroke-linejoin: miter"/>
   </g>
   <g id="patch_13">
    <path d="M 509.76 244.512 
L 535.68 244.512 
L 535.68 232.416 
L 509.76 232.416 
z
" clip-path="url(#p2d6ff59271)" style="fill: #d3d3d3; stroke: #000000; stroke-linejoin: miter"/>
   </g>
   <g id="patch_14">
    <path d="M 509.76 254.88 
L 535.68 254.88 
L 535.68 242.784 
L 509.76 242.784 
z
" clip-path="url(#p2d6ff59271)" style="fill: #d3d3d3; stroke: #000000; stroke-linejoin: miter"/>
   </g>
   <g id="patch_15">
    <path d="M 509.76 265.248 
L 535.68 265.248 
L 535.68 253.152 
L 509.76 253.152 
z
" clip-path="url(#p2d6ff59271)" style="fill: #d3d3d3; stroke: #000000; stroke-linejoin: miter"/>
   </g>
   <g id="patch_16">
    <path d="M 509.76 275.616 
L 535.68 275.616 
L 535.68 263.52 
L 509.76 263.52 
z
" clip-path="url(#p2d6ff59271)" style="fill: #d3d3d3; stroke: #000000; stroke-linejoin: miter"/>
   </g>
   <g id="patch_17">
    <path d="M 509.76 285.984 
L 535.68 285.984 
L 535.68 273.888 
L 509.76 273.888 
z
" clip-path="url(#p2d6ff59271)" style="fill: #d3d3d3; stroke: #000000; stroke-linejoin: miter"/>
   </g>
   <g id="patch_18">
    <path d="M 401.5008 198.9792 
L 462.4992 198.9792 
Q 466.8192 198.9792 466.8192 194.6592 
L 466.8192 150.9408 
Q 466.8192 146.6208 462.4992 146.6208 
L 401.5008 146.6208 
Q 397.1808 146.6208 397.1808 150.9408 
L 397.1808 194.6592 
Q 397.1808 198.9792 401.5008 198.9792 
z
" clip-path="url(#p2d6ff59271)" style="fill: #add8e6; stroke: #000000; stroke-linejoin: miter"/>
   </g>
   <g id="patch_19">
    <path d="M 371.52 178.848 
L 397.44 178.848 
L 397.44 166.752 
L 371.52 166.752 
z
" clip-path="url(#p2d6ff59271)" style="fill: #d3d3d3; stroke: #000000; stroke-linejoin: miter"/>
   </g>
   <g id="patch_20">
    <path d="M 466.56 178.848 
L 492.48 178.848 
L 492.48 166.752 
L 466.56 166.752 
z
" clip-path="url(#p2d6ff59271)" style="fill: #ffffff; stroke: #000000; stroke-linejoin: miter"/>
   </g>
   <g id="patch_21">
    <path d="M 263.2608 285.3792 
L 324.2592 285.3792 
Q 328.5792 285.3792 328.5792 281.0592 
L 328.5792 237.3408 
Q 328.5792 233.0208 324.2592 233.0208 
L 263.2608 233.0208 
Q 258.9408 233.0208 258.9408 237.3408 
L 258.9408 281.0592 
Q 258.9408 285.3792 263.2608 285.3792 
z
" clip-path="url(#p2d6ff59271)" style="fill: #add8e6; stroke: #000000; stroke-linejoin: miter"/>
   </g>
   <g id="patch_22">
    <path d="M 328.32 265.248 
L 354.24 265.248 
L 354.24 253.152 
L 328.32 253.152 
z
" clip-path="url(#p2d6ff59271)" style="fill: #ffffff; stroke: #000000; stroke-linejoin: miter"/>
   </g>
   <g id="patch_23">
    <path d="M 401.76 99.36 
L 462.24 99.36 
Q 466.56 99.36 466.56 95.04 
L 466.56 77.76 
Q 466.56 73.44 462.24 73.44 
L 401.76 73.44 
Q 397.44 73.44 397.44 77.76 
L 397.44 95.04 
Q 397.44 99.36 401.76 99.36 
z
" clip-path="url(#p2d6ff59271)" style="fill: #ffa500; stroke: #000000; stroke-linejoin: miter"/>
   </g>
   <g id="patch_24">
    <path d="M 388.8 90.72 
L 397.44 90.72 
L 397.44 82.08 
L 388.8 82.08 
z
" clip-path="url(#p2d6ff59271)" style="fill: #d3d3d3; stroke: #000000; stroke-linejoin: miter"/>
   </g>
   <g id="patch_25">
    <path d="M 466.56 90.72 
L 475.2 90.72 
L 475.2 82.08 
L 466.56 82.08 
z
" clip-path="url(#p2d6ff59271)" style="fill: #ffffff; stroke: #000000; stroke-linejoin: miter"/>
   </g>
   <g id="patch_26">
    <path d="M 492.48 259.2 
C 544.32 259.2 336.96 86.4 388.8 86.4 
" clip-path="url(#p2d6ff59271)" style="fill: none; stroke: #000000; stroke-linejoin: miter"/>
   </g>
   <g id="patch_27">
    <path d="M 492.48 259.2 
C 509.76 259.2 492.48 248.832 509.76 248.832 
" clip-path="url(#p2d6ff59271)" style="fill: none; stroke: #000000; stroke-linejoin: miter"/>
   </g>
   <g id="patch_28">
    <path d="M 492.48 172.8 
C 509.76 172.8 492.48 259.2 509.76 259.2 
" clip-path="url(#p2d6ff59271)" style="fill: none; stroke: #000000; stroke-linejoin: miter"/>
   </g>
   <g id="patch_29">
    <path d="M 492.48 345.6 
C 509.76 345.6 492.48 269.568 509.76 269.568 
" clip-path="url(#p2d6ff59271)" style="fill: none; stroke: #000000; stroke-linejoin: miter"/>
   </g>
   <g id="patch_30">
    <path d="M 354.24 345.6 
C 371.52 345.6 354.24 358.56 371.52 358.56 
" clip-path="url(#p2d6ff59271)" style="fill: none; stroke: #000000; stroke-linejoin: miter"/>
   </g>
   <g id="patch_31">
    <path d="M 354.24 259.2 
C 432 259.2 432 238.464 509.76 238.464 
" clip-path="url(#p2d6ff59271)" style="fill: none; stroke: #000000; stroke-linejoin: miter"/>
   </g>
   <g id="patch_32">
    <path d="M 354.24 259.2 
C 371.52 259.2 354.24 332.64 371.52 332.64 
" clip-path="url(#p2d6ff59271)" style="fill: none; stroke: #000000; stroke-linejoin: miter"/>
   </g>
   <g id="patch_33">
    <path d="M 354.24 259.2 
C 371.52 259.2 354.24 246.24 371.52 246.24 
" clip-path="url(#p2d6ff59271)" style="fill: none; stroke: #000000; stroke-linejoin: miter"/>
   </g>
   <g id="patch_34">
    <path d="M 475.2 86.4 
C 527.04 86.4 319.68 172.8 371.52 172.8 
" clip-path="url(#p2d6ff59271)" style="fill: none; stroke: #000000; stroke-linejoin: miter"/>
   </g>
   <g id="patch_35">
    <path d="M 354.24 345.6 
C 432 345.6 432 279.936 509.76 279.936 
" clip-path="url(#p2d6ff59271)" style="fill: none; stroke: #000000; stroke-linejoin: miter"/>
   </g>
   <g id="patch_36">
    <path d="M 492.48 172.8 
C 552.96 172.8 311.04 272.16 371.52 272.16 
" clip-path="url(#p2d6ff59271)" style="fill: none; stroke: #000000; stroke-linejoin: miter"/>
   </g>
   <g id="text_1">
    <!-- pre -->
    <g transform="translate(373.248 334.571563) scale(0.07 -0.07)">
     <defs>
      <path id="DejaVuSans-70" d="M 1159 525 
L 1159 -1331 
L 581 -1331 
L 581 3500 
L 1159 3500 
L 1159 2969 
Q 1341 3281 1617 3432 
Q 1894 3584 2278 3584 
Q 2916 3584 3314 3078 
Q 3713 2572 3713 1747 
Q 3713 922 3314 415 
Q 2916 -91 2278 -91 
Q 1894 -91 1617 61 
Q 1341 213 1159 525 
z
M 3116 1747 
Q 3116 2381 2855 2742 
Q 2594 3103 2138 3103 
Q 1681 3103 1420 2742 
Q 1159 2381 1159 1747 
Q 1159 1113 1420 752 
Q 1681 391 2138 391 
Q 2594 391 2855 752 
Q 3116 1113 3116 1747 
z
" transform="scale(0.015625)"/>
      <path id="DejaVuSans-72" d="M 2631 2963 
Q 2534 3019 2420 3045 
Q 2306 3072 2169 3072 
Q 1681 3072 1420 2755 
Q 1159 2438 1159 1844 
L 1159 0 
L 581 0 
L 581 3500 
L 1159 3500 
L 1159 2956 
Q 1341 3275 1631 3429 
Q 1922 3584 2338 3584 
Q 2397 3584 2469 3576 
Q 2541 3569 2628 3553 
L 2631 2963 
z
" transform="scale(0.015625)"/>
      <path id="DejaVuSans-65" d="M 3597 1894 
L 3597 1613 
L 953 1613 
Q 991 1019 1311 708 
Q 1631 397 2203 397 
Q 2534 397 2845 478 
Q 3156 559 3463 722 
L 3463 178 
Q 3153 47 2828 -22 
Q 2503 -91 2169 -91 
Q 1331 -91 842 396 
Q 353 884 353 1716 
Q 353 2575 817 3079 
Q 1281 3584 2069 3584 
Q 2775 3584 3186 3129 
Q 3597 2675 3597 1894 
z
M 3022 2063 
Q 3016 2534 2758 2815 
Q 2500 3097 2075 3097 
Q 1594 3097 1305 2825 
Q 1016 2553 972 2059 
L 3022 2063 
z
" transform="scale(0.015625)"/>
     </defs>
     <use xlink:href="#DejaVuSans-70"/>
     <use xlink:href="#DejaVuSans-72" x="63.476562"/>
     <use xlink:href="#DejaVuSans-65" x="102.339844"/>
    </g>
   </g>
   <g id="text_2">
    <!-- lai -->
    <g transform="translate(373.248 360.491563) scale(0.07 -0.07)">
     <defs>
      <path id="DejaVuSans-6c" d="M 603 4863 
L 1178 4863 
L 1178 0 
L 603 0 
L 603 4863 
z
" transform="scale(0.015625)"/>
      <path id="DejaVuSans-61" d="M 2194 1759 
Q 1497 1759 1228 1600 
Q 959 1441 959 1056 
Q 959 750 1161 570 
Q 1363 391 1709 391 
Q 2188 391 2477 730 
Q 2766 1069 2766 1631 
L 2766 1759 
L 2194 1759 
z
M 3341 1997 
L 3341 0 
L 2766 0 
L 2766 531 
Q 2569 213 2275 61 
Q 1981 -91 1556 -91 
Q 1019 -91 701 211 
Q 384 513 384 1019 
Q 384 1609 779 1909 
Q 1175 2209 1959 2209 
L 2766 2209 
L 2766 2266 
Q 2766 2663 2505 2880 
Q 2244 3097 1772 3097 
Q 1472 3097 1187 3025 
Q 903 2953 641 2809 
L 641 3341 
Q 956 3463 1253 3523 
Q 1550 3584 1831 3584 
Q 2591 3584 2966 3190 
Q 3341 2797 3341 1997 
z
" transform="scale(0.015625)"/>
      <path id="DejaVuSans-69" d="M 603 3500 
L 1178 3500 
L 1178 0 
L 603 0 
L 603 3500 
z
M 603 4863 
L 1178 4863 
L 1178 4134 
L 603 4134 
L 603 4863 
z
" transform="scale(0.015625)"/>
     </defs>
     <use xlink:href="#DejaVuSans-6c"/>
     <use xlink:href="#DejaVuSans-61" x="27.783203"/>
     <use xlink:href="#DejaVuSans-69" x="89.0625"/>
    </g>
   </g>
   <g id="text_3">
    <!-- sm -->
    <g transform="translate(468.288 347.531563) scale(0.07 -0.07)">
     <defs>
      <path id="DejaVuSans-73" d="M 2834 3397 
L 2834 2853 
Q 2591 2978 2328 3040 
Q 2066 3103 1784 3103 
Q 1356 3103 1142 2972 
Q 928 2841 928 2578 
Q 928 2378 1081 2264 
Q 1234 2150 1697 2047 
L 1894 2003 
Q 2506 1872 2764 1633 
Q 3022 1394 3022 966 
Q 3022 478 2636 193 
Q 2250 -91 1575 -91 
Q 1294 -91 989 -36 
Q 684 19 347 128 
L 347 722 
Q 666 556 975 473 
Q 1284 391 1588 391 
Q 1994 391 2212 530 
Q 2431 669 2431 922 
Q 2431 1156 2273 1281 
Q 2116 1406 1581 1522 
L 1381 1569 
Q 847 1681 609 1914 
Q 372 2147 372 2553 
Q 372 3047 722 3315 
Q 1072 3584 1716 3584 
Q 2034 3584 2315 3537 
Q 2597 3491 2834 3397 
z
" transform="scale(0.015625)"/>
      <path id="DejaVuSans-6d" d="M 3328 2828 
Q 3544 3216 3844 3400 
Q 4144 3584 4550 3584 
Q 5097 3584 5394 3201 
Q 5691 2819 5691 2113 
L 5691 0 
L 5113 0 
L 5113 2094 
Q 5113 2597 4934 2840 
Q 4756 3084 4391 3084 
Q 3944 3084 3684 2787 
Q 3425 2491 3425 1978 
L 3425 0 
L 2847 0 
L 2847 2094 
Q 2847 2600 2669 2842 
Q 2491 3084 2119 3084 
Q 1678 3084 1418 2786 
Q 1159 2488 1159 1978 
L 1159 0 
L 581 0 
L 581 3500 
L 1159 3500 
L 1159 2956 
Q 1356 3278 1631 3431 
Q 1906 3584 2284 3584 
Q 2666 3584 2933 3390 
Q 3200 3197 3328 2828 
z
" transform="scale(0.015625)"/>
     </defs>
     <use xlink:href="#DejaVuSans-73"/>
     <use xlink:href="#DejaVuSans-6d" x="52.099609"/>
    </g>
   </g>
   <g id="text_4">
    <!-- SM -->
    <g transform="translate(426.009375 347.8075) scale(0.08 -0.08)">
     <defs>
      <path id="DejaVuSans-53" d="M 3425 4513 
L 3425 3897 
Q 3066 4069 2747 4153 
Q 2428 4238 2131 4238 
Q 1616 4238 1336 4038 
Q 1056 3838 1056 3469 
Q 1056 3159 1242 3001 
Q 1428 2844 1947 2747 
L 2328 2669 
Q 3034 2534 3370 2195 
Q 3706 1856 3706 1288 
Q 3706 609 3251 259 
Q 2797 -91 1919 -91 
Q 1588 -91 1214 -16 
Q 841 59 441 206 
L 441 856 
Q 825 641 1194 531 
Q 1563 422 1919 422 
Q 2459 422 2753 634 
Q 3047 847 3047 1241 
Q 3047 1584 2836 1778 
Q 2625 1972 2144 2069 
L 1759 2144 
Q 1053 2284 737 2584 
Q 422 2884 422 3419 
Q 422 4038 858 4394 
Q 1294 4750 2059 4750 
Q 2388 4750 2728 4690 
Q 3069 4631 3425 4513 
z
" transform="scale(0.015625)"/>
      <path id="DejaVuSans-4d" d="M 628 4666 
L 1569 4666 
L 2759 1491 
L 3956 4666 
L 4897 4666 
L 4897 0 
L 4281 0 
L 4281 4097 
L 3078 897 
L 2444 897 
L 1241 4097 
L 1241 0 
L 628 0 
L 628 4666 
z
" transform="scale(0.015625)"/>
     </defs>
     <use xlink:href="#DejaVuSans-53"/>
     <use xlink:href="#DejaVuSans-4d" x="63.476562"/>
    </g>
   </g>
   <g id="text_5">
    <!-- lai -->
    <g transform="translate(330.048 347.531563) scale(0.07 -0.07)">
     <use xlink:href="#DejaVuSans-6c"/>
     <use xlink:href="#DejaVuSans-61" x="27.783203"/>
     <use xlink:href="#DejaVuSans-69" x="89.0625"/>
    </g>
   </g>
   <g id="text_6">
    <!-- CallbackGen -->
    <g transform="translate(268.69125 347.8075) scale(0.08 -0.08)">
     <defs>
      <path id="DejaVuSans-43" d="M 4122 4306 
L 4122 3641 
Q 3803 3938 3442 4084 
Q 3081 4231 2675 4231 
Q 1875 4231 1450 3742 
Q 1025 3253 1025 2328 
Q 1025 1406 1450 917 
Q 1875 428 2675 428 
Q 3081 428 3442 575 
Q 3803 722 4122 1019 
L 4122 359 
Q 3791 134 3420 21 
Q 3050 -91 2638 -91 
Q 1578 -91 968 557 
Q 359 1206 359 2328 
Q 359 3453 968 4101 
Q 1578 4750 2638 4750 
Q 3056 4750 3426 4639 
Q 3797 4528 4122 4306 
z
" transform="scale(0.015625)"/>
      <path id="DejaVuSans-62" d="M 3116 1747 
Q 3116 2381 2855 2742 
Q 2594 3103 2138 3103 
Q 1681 3103 1420 2742 
Q 1159 2381 1159 1747 
Q 1159 1113 1420 752 
Q 1681 391 2138 391 
Q 2594 391 2855 752 
Q 3116 1113 3116 1747 
z
M 1159 2969 
Q 1341 3281 1617 3432 
Q 1894 3584 2278 3584 
Q 2916 3584 3314 3078 
Q 3713 2572 3713 1747 
Q 3713 922 3314 415 
Q 2916 -91 2278 -91 
Q 1894 -91 1617 61 
Q 1341 213 1159 525 
L 1159 0 
L 581 0 
L 581 4863 
L 1159 4863 
L 1159 2969 
z
" transform="scale(0.015625)"/>
      <path id="DejaVuSans-63" d="M 3122 3366 
L 3122 2828 
Q 2878 2963 2633 3030 
Q 2388 3097 2138 3097 
Q 1578 3097 1268 2742 
Q 959 2388 959 1747 
Q 959 1106 1268 751 
Q 1578 397 2138 397 
Q 2388 397 2633 464 
Q 2878 531 3122 666 
L 3122 134 
Q 2881 22 2623 -34 
Q 2366 -91 2075 -91 
Q 1284 -91 818 406 
Q 353 903 353 1747 
Q 353 2603 823 3093 
Q 1294 3584 2113 3584 
Q 2378 3584 2631 3529 
Q 2884 3475 3122 3366 
z
" transform="scale(0.015625)"/>
      <path id="DejaVuSans-6b" d="M 581 4863 
L 1159 4863 
L 1159 1991 
L 2875 3500 
L 3609 3500 
L 1753 1863 
L 3688 0 
L 2938 0 
L 1159 1709 
L 1159 0 
L 581 0 
L 581 4863 
z
" transform="scale(0.015625)"/>
      <path id="DejaVuSans-47" d="M 3809 666 
L 3809 1919 
L 2778 1919 
L 2778 2438 
L 4434 2438 
L 4434 434 
Q 4069 175 3628 42 
Q 3188 -91 2688 -91 
Q 1594 -91 976 548 
Q 359 1188 359 2328 
Q 359 3472 976 4111 
Q 1594 4750 2688 4750 
Q 3144 4750 3555 4637 
Q 3966 4525 4313 4306 
L 4313 3634 
Q 3963 3931 3569 4081 
Q 3175 4231 2741 4231 
Q 1884 4231 1454 3753 
Q 1025 3275 1025 2328 
Q 1025 1384 1454 906 
Q 1884 428 2741 428 
Q 3075 428 3337 486 
Q 3600 544 3809 666 
z
" transform="scale(0.015625)"/>
      <path id="DejaVuSans-6e" d="M 3513 2113 
L 3513 0 
L 2938 0 
L 2938 2094 
Q 2938 2591 2744 2837 
Q 2550 3084 2163 3084 
Q 1697 3084 1428 2787 
Q 1159 2491 1159 1978 
L 1159 0 
L 581 0 
L 581 3500 
L 1159 3500 
L 1159 2956 
Q 1366 3272 1645 3428 
Q 1925 3584 2291 3584 
Q 2894 3584 3203 3211 
Q 3513 2838 3513 2113 
z
" transform="scale(0.015625)"/>
     </defs>
     <use xlink:href="#DejaVuSans-43"/>
     <use xlink:href="#DejaVuSans-61" x="69.824219"/>
     <use xlink:href="#DejaVuSans-6c" x="131.103516"/>
     <use xlink:href="#DejaVuSans-6c" x="158.886719"/>
     <use xlink:href="#DejaVuSans-62" x="186.669922"/>
     <use xlink:href="#DejaVuSans-61" x="250.146484"/>
     <use xlink:href="#DejaVuSans-63" x="311.425781"/>
     <use xlink:href="#DejaVuSans-6b" x="366.40625"/>
     <use xlink:href="#DejaVuSans-47" x="424.316406"/>
     <use xlink:href="#DejaVuSans-65" x="501.806641"/>
     <use xlink:href="#DejaVuSans-6e" x="563.330078"/>
    </g>
   </g>
   <g id="text_7">
    <!-- pre -->
    <g transform="translate(373.248 248.171563) scale(0.07 -0.07)">
     <use xlink:href="#DejaVuSans-70"/>
     <use xlink:href="#DejaVuSans-72" x="63.476562"/>
     <use xlink:href="#DejaVuSans-65" x="102.339844"/>
    </g>
   </g>
   <g id="text_8">
    <!-- lai -->
    <g transform="translate(373.248 274.091563) scale(0.07 -0.07)">
     <use xlink:href="#DejaVuSans-6c"/>
     <use xlink:href="#DejaVuSans-61" x="27.783203"/>
     <use xlink:href="#DejaVuSans-69" x="89.0625"/>
    </g>
   </g>
   <g id="text_9">
    <!-- sm -->
    <g transform="translate(468.288 261.131563) scale(0.07 -0.07)">
     <use xlink:href="#DejaVuSans-73"/>
     <use xlink:href="#DejaVuSans-6d" x="52.099609"/>
    </g>
   </g>
   <g id="text_10">
    <!-- SM -->
    <g transform="translate(426.009375 261.4075) scale(0.08 -0.08)">
     <use xlink:href="#DejaVuSans-53"/>
     <use xlink:href="#DejaVuSans-4d" x="63.476562"/>
    </g>
   </g>
   <g id="text_11">
    <!-- pre -->
    <g transform="translate(511.488 240.395563) scale(0.07 -0.07)">
     <use xlink:href="#DejaVuSans-70"/>
     <use xlink:href="#DejaVuSans-72" x="63.476562"/>
     <use xlink:href="#DejaVuSans-65" x="102.339844"/>
    </g>
   </g>
   <g id="text_12">
    <!-- sm_bi -->
    <g transform="translate(511.488 250.666219) scale(0.07 -0.07)">
     <defs>
      <path id="DejaVuSans-5f" d="M 3263 -1063 
L 3263 -1509 
L -63 -1509 
L -63 -1063 
L 3263 -1063 
z
" transform="scale(0.015625)"/>
     </defs>
     <use xlink:href="#DejaVuSans-73"/>
     <use xlink:href="#DejaVuSans-6d" x="52.099609"/>
     <use xlink:href="#DejaVuSans-5f" x="149.511719"/>
     <use xlink:href="#DejaVuSans-62" x="199.511719"/>
     <use xlink:href="#DejaVuSans-69" x="262.988281"/>
    </g>
   </g>
   <g id="text_13">
    <!-- lai_bi -->
    <g transform="translate(511.488 261.034219) scale(0.07 -0.07)">
     <use xlink:href="#DejaVuSans-6c"/>
     <use xlink:href="#DejaVuSans-61" x="27.783203"/>
     <use xlink:href="#DejaVuSans-69" x="89.0625"/>
     <use xlink:href="#DejaVuSans-5f" x="116.845703"/>
     <use xlink:href="#DejaVuSans-62" x="166.845703"/>
     <use xlink:href="#DejaVuSans-69" x="230.322266"/>
    </g>
   </g>
   <g id="text_14">
    <!-- sm_co -->
    <g transform="translate(511.488 271.304875) scale(0.07 -0.07)">
     <defs>
      <path id="DejaVuSans-6f" d="M 1959 3097 
Q 1497 3097 1228 2736 
Q 959 2375 959 1747 
Q 959 1119 1226 758 
Q 1494 397 1959 397 
Q 2419 397 2687 759 
Q 2956 1122 2956 1747 
Q 2956 2369 2687 2733 
Q 2419 3097 1959 3097 
z
M 1959 3584 
Q 2709 3584 3137 3096 
Q 3566 2609 3566 1747 
Q 3566 888 3137 398 
Q 2709 -91 1959 -91 
Q 1206 -91 779 398 
Q 353 888 353 1747 
Q 353 2609 779 3096 
Q 1206 3584 1959 3584 
z
" transform="scale(0.015625)"/>
     </defs>
     <use xlink:href="#DejaVuSans-73"/>
     <use xlink:href="#DejaVuSans-6d" x="52.099609"/>
     <use xlink:href="#DejaVuSans-5f" x="149.511719"/>
     <use xlink:href="#DejaVuSans-63" x="199.511719"/>
     <use xlink:href="#DejaVuSans-6f" x="254.492188"/>
    </g>
   </g>
   <g id="text_15">
    <!-- const -->
    <g transform="translate(511.488 281.867563) scale(0.07 -0.07)">
     <defs>
      <path id="DejaVuSans-74" d="M 1172 4494 
L 1172 3500 
L 2356 3500 
L 2356 3053 
L 1172 3053 
L 1172 1153 
Q 1172 725 1289 603 
Q 1406 481 1766 481 
L 2356 481 
L 2356 0 
L 1766 0 
Q 1100 0 847 248 
Q 594 497 594 1153 
L 594 3053 
L 172 3053 
L 172 3500 
L 594 3500 
L 594 4494 
L 1172 4494 
z
" transform="scale(0.015625)"/>
     </defs>
     <use xlink:href="#DejaVuSans-63"/>
     <use xlink:href="#DejaVuSans-6f" x="54.980469"/>
     <use xlink:href="#DejaVuSans-6e" x="116.162109"/>
     <use xlink:href="#DejaVuSans-73" x="179.541016"/>
     <use xlink:href="#DejaVuSans-74" x="231.640625"/>
    </g>
   </g>
   <g id="text_16">
    <!-- CsvWriter -->
    <g transform="translate(550.79125 261.4075) scale(0.08 -0.08)">
     <defs>
      <path id="DejaVuSans-76" d="M 191 3500 
L 800 3500 
L 1894 563 
L 2988 3500 
L 3597 3500 
L 2284 0 
L 1503 0 
L 191 3500 
z
" transform="scale(0.015625)"/>
      <path id="DejaVuSans-57" d="M 213 4666 
L 850 4666 
L 1831 722 
L 2809 4666 
L 3519 4666 
L 4500 722 
L 5478 4666 
L 6119 4666 
L 4947 0 
L 4153 0 
L 3169 4050 
L 2175 0 
L 1381 0 
L 213 4666 
z
" transform="scale(0.015625)"/>
     </defs>
     <use xlink:href="#DejaVuSans-43"/>
     <use xlink:href="#DejaVuSans-73" x="69.824219"/>
     <use xlink:href="#DejaVuSans-76" x="121.923828"/>
     <use xlink:href="#DejaVuSans-57" x="181.103516"/>
     <use xlink:href="#DejaVuSans-72" x="275.480469"/>
     <use xlink:href="#DejaVuSans-69" x="316.59375"/>
     <use xlink:href="#DejaVuSans-74" x="344.376953"/>
     <use xlink:href="#DejaVuSans-65" x="383.585938"/>
     <use xlink:href="#DejaVuSans-72" x="445.109375"/>
    </g>
   </g>
   <g id="text_17">
    <!-- sm -->
    <g transform="translate(373.248 174.731562) scale(0.07 -0.07)">
     <use xlink:href="#DejaVuSans-73"/>
     <use xlink:href="#DejaVuSans-6d" x="52.099609"/>
    </g>
   </g>
   <g id="text_18">
    <!-- lai -->
    <g transform="translate(468.288 174.731562) scale(0.07 -0.07)">
     <use xlink:href="#DejaVuSans-6c"/>
     <use xlink:href="#DejaVuSans-61" x="27.783203"/>
     <use xlink:href="#DejaVuSans-69" x="89.0625"/>
    </g>
   </g>
   <g id="text_19">
    <!-- LAI -->
    <g transform="translate(425.765 175.0075) scale(0.08 -0.08)">
     <defs>
      <path id="DejaVuSans-4c" d="M 628 4666 
L 1259 4666 
L 1259 531 
L 3531 531 
L 3531 0 
L 628 0 
L 628 4666 
z
" transform="scale(0.015625)"/>
      <path id="DejaVuSans-41" d="M 2188 4044 
L 1331 1722 
L 3047 1722 
L 2188 4044 
z
M 1831 4666 
L 2547 4666 
L 4325 0 
L 3669 0 
L 3244 1197 
L 1141 1197 
L 716 0 
L 50 0 
L 1831 4666 
z
" transform="scale(0.015625)"/>
      <path id="DejaVuSans-49" d="M 628 4666 
L 1259 4666 
L 1259 0 
L 628 0 
L 628 4666 
z
" transform="scale(0.015625)"/>
     </defs>
     <use xlink:href="#DejaVuSans-4c"/>
     <use xlink:href="#DejaVuSans-41" x="57.962891"/>
     <use xlink:href="#DejaVuSans-49" x="126.371094"/>
    </g>
   </g>
   <g id="text_20">
    <!-- pre -->
    <g transform="translate(330.048 261.131563) scale(0.07 -0.07)">
     <use xlink:href="#DejaVuSans-70"/>
     <use xlink:href="#DejaVuSans-72" x="63.476562"/>
     <use xlink:href="#DejaVuSans-65" x="102.339844"/>
    </g>
   </g>
   <g id="text_21">
    <!-- CsvReader -->
    <g transform="translate(272.35875 261.4075) scale(0.08 -0.08)">
     <defs>
      <path id="DejaVuSans-52" d="M 2841 2188 
Q 3044 2119 3236 1894 
Q 3428 1669 3622 1275 
L 4263 0 
L 3584 0 
L 2988 1197 
Q 2756 1666 2539 1819 
Q 2322 1972 1947 1972 
L 1259 1972 
L 1259 0 
L 628 0 
L 628 4666 
L 2053 4666 
Q 2853 4666 3247 4331 
Q 3641 3997 3641 3322 
Q 3641 2881 3436 2590 
Q 3231 2300 2841 2188 
z
M 1259 4147 
L 1259 2491 
L 2053 2491 
Q 2509 2491 2742 2702 
Q 2975 2913 2975 3322 
Q 2975 3731 2742 3939 
Q 2509 4147 2053 4147 
L 1259 4147 
z
" transform="scale(0.015625)"/>
      <path id="DejaVuSans-64" d="M 2906 2969 
L 2906 4863 
L 3481 4863 
L 3481 0 
L 2906 0 
L 2906 525 
Q 2725 213 2448 61 
Q 2172 -91 1784 -91 
Q 1150 -91 751 415 
Q 353 922 353 1747 
Q 353 2572 751 3078 
Q 1150 3584 1784 3584 
Q 2172 3584 2448 3432 
Q 2725 3281 2906 2969 
z
M 947 1747 
Q 947 1113 1208 752 
Q 1469 391 1925 391 
Q 2381 391 2643 752 
Q 2906 1113 2906 1747 
Q 2906 2381 2643 2742 
Q 2381 3103 1925 3103 
Q 1469 3103 1208 2742 
Q 947 2381 947 1747 
z
" transform="scale(0.015625)"/>
     </defs>
     <use xlink:href="#DejaVuSans-43"/>
     <use xlink:href="#DejaVuSans-73" x="69.824219"/>
     <use xlink:href="#DejaVuSans-76" x="121.923828"/>
     <use xlink:href="#DejaVuSans-52" x="181.103516"/>
     <use xlink:href="#DejaVuSans-65" x="246.085938"/>
     <use xlink:href="#DejaVuSans-61" x="307.609375"/>
     <use xlink:href="#DejaVuSans-64" x="368.888672"/>
     <use xlink:href="#DejaVuSans-65" x="432.365234"/>
     <use xlink:href="#DejaVuSans-72" x="493.888672"/>
    </g>
   </g>
   <g id="text_22">
    <!-- DelayFixed -->
    <g transform="translate(410.16375 88.6075) scale(0.08 -0.08)">
     <defs>
      <path id="DejaVuSans-44" d="M 1259 4147 
L 1259 519 
L 2022 519 
Q 2988 519 3436 956 
Q 3884 1394 3884 2338 
Q 3884 3275 3436 3711 
Q 2988 4147 2022 4147 
L 1259 4147 
z
M 628 4666 
L 1925 4666 
Q 3281 4666 3915 4102 
Q 4550 3538 4550 2338 
Q 4550 1131 3912 565 
Q 3275 0 1925 0 
L 628 0 
L 628 4666 
z
" transform="scale(0.015625)"/>
      <path id="DejaVuSans-79" d="M 2059 -325 
Q 1816 -950 1584 -1140 
Q 1353 -1331 966 -1331 
L 506 -1331 
L 506 -850 
L 844 -850 
Q 1081 -850 1212 -737 
Q 1344 -625 1503 -206 
L 1606 56 
L 191 3500 
L 800 3500 
L 1894 763 
L 2988 3500 
L 3597 3500 
L 2059 -325 
z
" transform="scale(0.015625)"/>
      <path id="DejaVuSans-46" d="M 628 4666 
L 3309 4666 
L 3309 4134 
L 1259 4134 
L 1259 2759 
L 3109 2759 
L 3109 2228 
L 1259 2228 
L 1259 0 
L 628 0 
L 628 4666 
z
" transform="scale(0.015625)"/>
      <path id="DejaVuSans-78" d="M 3513 3500 
L 2247 1797 
L 3578 0 
L 2900 0 
L 1881 1375 
L 863 0 
L 184 0 
L 1544 1831 
L 300 3500 
L 978 3500 
L 1906 2253 
L 2834 3500 
L 3513 3500 
z
" transform="scale(0.015625)"/>
     </defs>
     <use xlink:href="#DejaVuSans-44"/>
     <use xlink:href="#DejaVuSans-65" x="77.001953"/>
     <use xlink:href="#DejaVuSans-6c" x="138.525391"/>
     <use xlink:href="#DejaVuSans-61" x="166.308594"/>
     <use xlink:href="#DejaVuSans-79" x="227.587891"/>
     <use xlink:href="#DejaVuSans-46" x="286.767578"/>
     <use xlink:href="#DejaVuSans-69" x="337.037109"/>
     <use xlink:href="#DejaVuSans-78" x="364.820312"/>
     <use xlink:href="#DejaVuSans-65" x="420.875"/>
     <use xlink:href="#DejaVuSans-64" x="482.398438"/>
    </g>
   </g>
  </g>
 </g>
 <defs>
  <clipPath id="p2d6ff59271">
   <rect x="181.44" y="0" width="501.12" height="432"/>
  </clipPath>
 </defs>
</svg>
